<?xml version="1.0" encoding="utf-8"?>
<!-- Generator: Adobe Illustrator 24.0.0, SVG Export Plug-In . SVG Version: 6.00 Build 0)  -->
<svg version="1.1" xmlns="http://www.w3.org/2000/svg" xmlns:xlink="http://www.w3.org/1999/xlink" x="0px" y="0px"
	 viewBox="0 0 256 256" style="enable-background:new 0 0 256 256;" xml:space="preserve" width="512px" height="512px">
<style type="text/css">
	.st0{fill:#F98FA6;}
	.st1{fill:#FC657E;}
	.st2{fill:#DAE6F1;}
	.st3{fill:#5290DB;}
	.st4{fill:#FCDD86;}
	.st5{fill:#F5C84C;}
	.st6{fill:#87D147;}
	.st7{fill:#70D6F9;}
	.st8{fill:#EDF4FC;}
	.st9{fill:#9BE5F9;}
	.st10{fill:#B2E26D;}
	.st11{fill:#F9C1A8;}
	.st12{fill:#414344;}
	.st13{fill:#E1FBFF;}
	.st14{fill:#FFE3EC;}
	.st15{fill:#FCBECF;}
	.st16{fill:#EF4460;}
	.st17{fill:#80C2F9;}
	.st18{fill:#3A70BF;}
	.st19{fill:#FCA265;}
	.st20{fill:#5B5D60;}
	.st21{fill:#818182;}
	.st22{fill:#C7D7E5;}
	.st23{fill:#F9D0B4;}
	.st24{fill:#AA6F59;}
	.st25{fill:#D1856D;}
	.st26{fill:#FCC29A;}
	.st27{fill:#29589F;}
	.st28{fill:#F7B386;}
	.st29{fill:#FC8C48;}
	.st30{fill:#FFF0CC;}
	.st31{fill:#57AF12;}
	.st32{fill:#3CAADC;}
	.st33{fill:#EDB311;}
	.st34{fill:#231F20;}
</style>
<g id="Layer_1">
</g>
<g id="Layer_2">
</g>
<g id="Layer_3">
</g>
<g id="Layer_4">
</g>
<g id="Layer_5">
</g>
<g id="Layer_6">
</g>
<g id="Layer_7">
</g>
<g id="Layer_8">
</g>
<g id="Layer_9">
</g>
<g id="Layer_10">
</g>
<g id="Layer_11">
</g>
<g id="Layer_12">
</g>
<g id="Layer_13">
</g>
<g id="Layer_14">
	<g>
		<g>
			<g>
				<path class="st8" d="M177.158,19.449H50.16c-3.939,0-7.162,3.223-7.162,7.162v154.625c3.742-1.269,7.747-1.967,11.918-1.967
					c4.281,0,8.389,0.734,12.215,2.067c3.826-1.334,7.934-2.067,12.215-2.067c20.498,0,37.115,16.617,37.115,37.115
					c0,3.721-0.554,7.311-1.573,10.7h62.269c3.939,0,7.162-3.223,7.162-7.162V26.611C184.32,22.672,181.097,19.449,177.158,19.449z"
					/>
			</g>
		</g>
		<g>
			<g>
				<path class="st9" d="M53.869,30.32v148.971c0.348-0.01,0.696-0.022,1.047-0.022c4.281,0,8.389,0.734,12.215,2.067
					c3.826-1.334,7.934-2.067,12.215-2.067c20.441,0,37.018,16.525,37.111,36.944h56.992V30.32H53.869z"/>
			</g>
		</g>
		<g>
			<g>
				<path class="st1" d="M141.255,99.318c-7.439-6.928-19.149-6.395-26.337,0.792l0,0c-0.695,0.695-1.823,0.695-2.518,0
					c-7.188-7.188-18.899-7.72-26.337-0.792c-7.809,7.273-7.973,19.505-0.492,26.986l24.215,24.215c2.139,2.139,5.608,2.139,7.747,0
					l24.215-24.215C149.228,118.823,149.064,106.591,141.255,99.318z"/>
			</g>
		</g>
		<g>
			<g>
				<path class="st1" d="M77.867,32.246c-2.918-2.718-7.512-2.509-10.332,0.311c-0.273,0.273-0.715,0.273-0.988,0
					c-2.82-2.82-7.414-3.029-10.332-0.311c-3.064,2.853-3.128,7.652-0.193,10.586l9.499,9.499c0.839,0.839,2.2,0.839,3.039,0
					l9.499-9.499C80.995,39.897,80.93,35.099,77.867,32.246z"/>
			</g>
		</g>
		<g>
			<g>
				<path class="st1" d="M171.102,195.498c-2.918-2.718-7.512-2.509-10.332,0.311c-0.273,0.273-0.715,0.273-0.988,0
					c-2.82-2.82-7.414-3.029-10.332-0.311c-3.063,2.853-3.128,7.652-0.193,10.586l9.499,9.499c0.839,0.839,2.2,0.839,3.039,0
					l9.499-9.499C174.23,203.15,174.166,198.352,171.102,195.498z"/>
			</g>
		</g>
		<g>
			<g>
				<path class="st8" d="M231.037,19.449h-53.88c3.939,0,7.162,3.223,7.162,7.162v193.311c0,3.939-3.223,7.162-7.162,7.162h53.88
					c3.939,0,7.162-3.223,7.162-7.162V26.611C238.2,22.672,234.977,19.449,231.037,19.449z"/>
			</g>
		</g>
		<g>
			<g>
				<rect x="184.32" y="30.32" class="st9" width="43.009" height="185.894"/>
			</g>
		</g>
		<g>
			<g>
				<path class="st3" d="M224.612,199.6l-8.34-8.34c-0.737-0.737-1.932-0.737-2.668,0l-8.34,8.34
					c-2.577,2.577-2.52,6.79,0.169,9.295c1.711,1.594,4.077,2.038,6.198,1.42c0.491-0.143,0.941,0.314,0.781,0.799l-1.36,4.133
					c-0.185,0.562,0.234,1.141,0.826,1.141h6.121c0.592,0,1.011-0.579,0.826-1.141l-1.36-4.133c-0.16-0.485,0.29-0.942,0.781-0.799
					c2.121,0.617,4.487,0.173,6.198-1.42C227.132,206.39,227.188,202.177,224.612,199.6z"/>
			</g>
		</g>
		<g>
			<g>
				<path class="st3" d="M195.953,114.294l-11.633-11.633v36.559c4.002,0.37,8.109-0.85,11.247-3.773
					C201.689,129.746,201.817,120.158,195.953,114.294z"/>
			</g>
		</g>
		<g>
			<g>
				
					<ellipse transform="matrix(0.9732 -0.2298 0.2298 0.9732 -48.2459 18.4055)" class="st1" cx="54.916" cy="216.385" rx="37.115" ry="37.115"/>
			</g>
		</g>
		<g>
			<g>
				<path class="st3" d="M79.346,179.269c-4.281,0-8.389,0.734-12.215,2.067c14.495,5.052,24.9,18.831,24.9,35.048
					s-10.405,29.996-24.9,35.048c3.826,1.334,7.934,2.067,12.215,2.067c20.498,0,37.115-16.617,37.115-37.115
					C116.461,195.886,99.844,179.269,79.346,179.269z"/>
			</g>
		</g>
		<g>
			<g>
				<path class="st17" d="M83.941,193.266c5.058,6.343,8.09,14.374,8.09,23.118c0,8.744-3.031,16.775-8.09,23.118
					c10.818-2.139,18.978-11.672,18.978-23.118C102.919,204.939,94.76,195.405,83.941,193.266z"/>
			</g>
		</g>
		<g>
			<g>
				
					<ellipse transform="matrix(0.9732 -0.2298 0.2298 0.9732 -48.2459 18.4055)" class="st0" cx="54.916" cy="216.385" rx="23.573" ry="23.573"/>
			</g>
		</g>
		<g>
			<g>
				<path d="M177.157,16.949H50.16c-5.328,0-9.663,4.334-9.663,9.663v153.858c0,1.381,1.119,2.5,2.5,2.5s2.5-1.119,2.5-2.5V26.611
					c0-2.571,2.092-4.663,4.663-4.663h126.997c2.571,0,4.663,2.092,4.663,4.663v193.311c0,2.571-2.092,4.663-4.663,4.663h-61.532
					c-1.381,0-2.5,1.119-2.5,2.5s1.119,2.5,2.5,2.5h61.532c5.328,0,9.663-4.334,9.663-9.663V26.611
					C186.82,21.283,182.485,16.949,177.157,16.949z"/>
			</g>
		</g>
		<g>
			<g>
				<path d="M173.449,27.82H87.002c-1.381,0-2.5,1.119-2.5,2.5s1.119,2.5,2.5,2.5h83.947v153.414c0,1.381,1.119,2.5,2.5,2.5
					s2.5-1.119,2.5-2.5V30.32C175.949,28.939,174.83,27.82,173.449,27.82z"/>
			</g>
		</g>
		<g>
			<g>
				<path d="M227.329,27.82h-42.588c-1.381,0-2.5,1.119-2.5,2.5s1.119,2.5,2.5,2.5h40.088v153.414c0,1.381,1.119,2.5,2.5,2.5
					s2.5-1.119,2.5-2.5V30.32C229.829,28.939,228.71,27.82,227.329,27.82z"/>
			</g>
		</g>
		<g>
			<g>
				<path d="M198.943,213.713h-14.202c-1.381,0-2.5,1.119-2.5,2.5s1.119,2.5,2.5,2.5h14.202c1.381,0,2.5-1.119,2.5-2.5
					S200.324,213.713,198.943,213.713z"/>
			</g>
		</g>
		<g>
			<g>
				<path d="M231.037,16.949h-53.329c-1.381,0-2.5,1.119-2.5,2.5s1.119,2.5,2.5,2.5h53.329c2.571,0,4.663,2.092,4.663,4.663v193.311
					c0,2.571-2.092,4.663-4.663,4.663h-52.985c-0.174-0.023-0.351-0.028-0.533-0.014c-0.119,0.009-0.239,0.014-0.361,0.014
					c-1.381,0-2.5,1.119-2.5,2.5s1.119,2.5,2.5,2.5h53.88c5.328,0,9.663-4.334,9.663-9.663V26.611
					C240.7,21.283,236.365,16.949,231.037,16.949z"/>
			</g>
		</g>
		<g>
			<g>
				<path d="M54.916,239.276c-1.381,0-2.5,1.119-2.5,2.5v10.599c0,1.381,1.119,2.5,2.5,2.5s2.5-1.119,2.5-2.5v-10.599
					C57.416,240.395,56.297,239.276,54.916,239.276z"/>
			</g>
		</g>
		<g>
			<g>
				<path d="M54.916,178.016c-1.381,0-2.5,1.119-2.5,2.5v10.478c0,1.381,1.119,2.5,2.5,2.5s2.5-1.119,2.5-2.5v-10.478
					C57.416,179.135,56.297,178.016,54.916,178.016z"/>
			</g>
		</g>
		<g>
			<g>
				<path d="M75.107,246.358l-5.331-9.234c-0.691-1.197-2.222-1.604-3.415-0.915c-1.195,0.69-1.605,2.219-0.915,3.415l5.331,9.234
					c0.463,0.802,1.304,1.25,2.167,1.25c0.425,0,0.854-0.108,1.248-0.335C75.388,249.083,75.798,247.554,75.107,246.358z"/>
			</g>
		</g>
		<g>
			<g>
				<path d="M44.385,193.145l-5.289-9.161c-0.69-1.197-2.221-1.605-3.415-0.915c-1.195,0.69-1.605,2.219-0.915,3.415l5.289,9.161
					c0.463,0.802,1.304,1.25,2.167,1.25c0.425,0,0.854-0.108,1.248-0.335C44.665,195.87,45.075,194.341,44.385,193.145z"/>
			</g>
		</g>
		<g>
			<g>
				<path d="M87.528,232.327l-9.373-5.412c-1.193-0.689-2.725-0.282-3.415,0.915c-0.69,1.196-0.28,2.725,0.915,3.415l9.373,5.412
					c0.394,0.228,0.823,0.335,1.248,0.335c0.863,0,1.704-0.448,2.167-1.25C89.134,234.546,88.724,233.018,87.528,232.327z"/>
			</g>
		</g>
		<g>
			<g>
				<path d="M34.176,201.524l-9.313-5.377c-1.192-0.689-2.725-0.282-3.415,0.915c-0.69,1.196-0.28,2.725,0.915,3.415l9.313,5.377
					c0.394,0.228,0.823,0.335,1.248,0.335c0.863,0,1.704-0.448,2.167-1.25C35.781,203.743,35.371,202.214,34.176,201.524z"/>
			</g>
		</g>
		<g>
			<g>
				<path d="M91.406,213.885h-11.1c-1.381,0-2.5,1.119-2.5,2.5s1.119,2.5,2.5,2.5h11.1c1.381,0,2.5-1.119,2.5-2.5
					S92.787,213.885,91.406,213.885z"/>
			</g>
		</g>
		<g>
			<g>
				<path d="M29.524,213.885H18.479c-1.381,0-2.5,1.119-2.5,2.5s1.119,2.5,2.5,2.5h11.045c1.381,0,2.5-1.119,2.5-2.5
					S30.905,213.885,29.524,213.885z"/>
			</g>
		</g>
		<g>
			<g>
				<path d="M88.344,197.084c-0.69-1.197-2.222-1.603-3.415-0.915l-9.273,5.354c-1.195,0.69-1.605,2.219-0.915,3.415
					c0.463,0.802,1.304,1.25,2.167,1.25c0.425,0,0.854-0.108,1.248-0.335l9.273-5.354C88.624,199.809,89.034,198.28,88.344,197.084z
					"/>
			</g>
		</g>
		<g>
			<g>
				<path d="M35.091,227.831c-0.69-1.197-2.221-1.603-3.415-0.915l-9.391,5.422c-1.195,0.69-1.605,2.219-0.915,3.415
					c0.463,0.802,1.304,1.25,2.167,1.25c0.425,0,0.854-0.108,1.248-0.335l9.391-5.422C35.371,230.555,35.781,229.026,35.091,227.831
					z"/>
			</g>
		</g>
		<g>
			<g>
				<path d="M74.162,183.049c-1.193-0.69-2.725-0.282-3.415,0.915l-5.301,9.181c-0.69,1.196-0.28,2.725,0.915,3.415
					c0.394,0.228,0.823,0.335,1.248,0.335c0.863,0,1.704-0.448,2.167-1.25l5.301-9.181C75.768,185.269,75.357,183.74,74.162,183.049
					z"/>
			</g>
		</g>
		<g>
			<g>
				<path d="M43.47,236.209c-1.194-0.689-2.725-0.282-3.415,0.915l-5.301,9.181c-0.69,1.196-0.28,2.725,0.915,3.415
					c0.394,0.228,0.823,0.335,1.248,0.335c0.863,0,1.704-0.448,2.167-1.25l5.301-9.181C45.075,238.428,44.665,236.899,43.47,236.209
					z"/>
			</g>
		</g>
		<g>
			<g>
				<path d="M99.522,246.332l-5.315-9.208c-0.69-1.196-2.222-1.604-3.415-0.915c-1.195,0.69-1.605,2.219-0.915,3.415l5.315,9.208
					c0.463,0.802,1.304,1.25,2.167,1.25c0.425,0,0.854-0.108,1.248-0.335C99.803,249.056,100.213,247.527,99.522,246.332z"/>
			</g>
		</g>
		<g>
			<g>
				<path d="M111.838,232.257l-9.252-5.341c-1.193-0.689-2.725-0.281-3.415,0.915c-0.69,1.196-0.28,2.725,0.915,3.415l9.252,5.341
					c0.394,0.228,0.823,0.335,1.248,0.335c0.863,0,1.704-0.449,2.167-1.25C113.443,234.476,113.033,232.947,111.838,232.257z"/>
			</g>
		</g>
		<g>
			<g>
				<path d="M115.813,213.885h-11.076c-1.381,0-2.5,1.119-2.5,2.5s1.119,2.5,2.5,2.5h11.076c1.381,0,2.5-1.119,2.5-2.5
					S117.194,213.885,115.813,213.885z"/>
			</g>
		</g>
		<g>
			<g>
				<path d="M113.121,196.884c-0.691-1.197-2.222-1.604-3.415-0.915l-9.62,5.555c-1.195,0.69-1.605,2.219-0.915,3.415
					c0.463,0.802,1.304,1.25,2.167,1.25c0.425,0,0.854-0.108,1.248-0.335l9.62-5.555
					C113.401,199.609,113.812,198.08,113.121,196.884z"/>
			</g>
		</g>
		<g>
			<g>
				<path d="M98.577,183.076c-1.193-0.69-2.725-0.281-3.415,0.915l-5.285,9.154c-0.69,1.196-0.28,2.725,0.915,3.415
					c0.394,0.228,0.823,0.335,1.248,0.335c0.863,0,1.704-0.449,2.167-1.25l5.285-9.154
					C100.183,185.295,99.772,183.766,98.577,183.076z"/>
			</g>
		</g>
		<g>
			<g>
				<path class="st5" d="M30.983,168.882c-4.498-0.838-8.043-4.31-8.898-8.716c-0.043-0.221-0.352-0.221-0.395,0
					c-0.855,4.406-4.4,7.879-8.898,8.716c-0.226,0.042-0.226,0.345,0,0.387c4.498,0.838,8.043,4.31,8.898,8.717
					c0.043,0.221,0.352,0.221,0.395,0c0.855-4.406,4.4-7.879,8.898-8.717C31.209,169.227,31.209,168.924,30.983,168.882z"/>
			</g>
		</g>
		<g>
			<g>
				<path class="st6" d="M142.401,242.361c-3.221-0.6-5.76-3.087-6.372-6.243c-0.031-0.158-0.252-0.158-0.283,0
					c-0.612,3.156-3.151,5.643-6.372,6.243c-0.162,0.03-0.162,0.247,0,0.277c3.221,0.6,5.76,3.087,6.372,6.243
					c0.031,0.159,0.252,0.159,0.283,0c0.612-3.156,3.151-5.643,6.372-6.243C142.563,242.608,142.563,242.392,142.401,242.361z"/>
			</g>
		</g>
		<g>
			<g>
				<path class="st7" d="M193.626,4.126h-1.751V2.374c0-1.311-1.063-2.374-2.374-2.374s-2.374,1.063-2.374,2.374v1.752h-1.752
					C184.063,4.126,183,5.189,183,6.5c0,1.311,1.063,2.374,2.374,2.374h1.752v1.752c0,1.311,1.063,2.374,2.374,2.374
					s2.374-1.063,2.374-2.374V8.874h1.751c1.311,0,2.374-1.063,2.374-2.374C196,5.189,194.937,4.126,193.626,4.126z"/>
			</g>
		</g>
		<g>
			<g>
				<path class="st1" d="M27.999,139.246c-1.865,0-3.377,1.512-3.377,3.377c0,1.865,1.512,3.377,3.377,3.377
					s3.377-1.512,3.377-3.377C31.376,140.758,29.864,139.246,27.999,139.246z"/>
			</g>
		</g>
		<g>
			<g>
				<circle class="st5" cx="163.999" cy="3.377" r="3.377"/>
			</g>
		</g>
		<g>
			<g>
				<path d="M84.65,190.859c-1.352-0.277-2.676,0.589-2.955,1.942c-0.279,1.352,0.59,2.675,1.941,2.955
					c9.725,2.011,16.783,10.687,16.783,20.629c0,9.989-7.099,18.673-16.88,20.648c-1.354,0.273-2.229,1.592-1.955,2.946
					c0.239,1.186,1.282,2.005,2.447,2.005c0.164,0,0.331-0.016,0.498-0.05c12.104-2.445,20.89-13.19,20.89-25.55
					C105.42,204.083,96.685,193.348,84.65,190.859z"/>
			</g>
		</g>
		<g>
			<g>
				<g>
					<path d="M54.916,190.312c-14.377,0-26.073,11.696-26.073,26.073s11.696,26.073,26.073,26.073s26.073-11.696,26.073-26.073
						S69.293,190.312,54.916,190.312z M54.916,237.458c-11.62,0-21.073-9.454-21.073-21.073s9.453-21.073,21.073-21.073
						s21.073,9.454,21.073,21.073S66.536,237.458,54.916,237.458z"/>
				</g>
			</g>
		</g>
		<g>
			<g>
				<g>
					<path d="M229.001,204.325c0.044-2.453-0.888-4.759-2.622-6.493l-8.34-8.341c-1.712-1.71-4.494-1.708-6.204,0.001l-8.34,8.34
						c-1.734,1.734-2.666,4.041-2.622,6.493c0.043,2.452,1.057,4.725,2.855,6.399c1.509,1.405,3.409,2.209,5.407,2.344l-0.46,1.399
						c-0.336,1.023-0.16,2.155,0.472,3.027c0.632,0.873,1.652,1.394,2.729,1.394h6.12c1.077,0,2.098-0.521,2.729-1.394
						c0.632-0.872,0.808-2.004,0.472-3.029l-0.46-1.398c1.998-0.135,3.898-0.939,5.408-2.344
						C227.944,209.05,228.958,206.777,229.001,204.325z M214.13,213.889l0.655-1.991c0.084-0.254,0.134-0.515,0.151-0.775
						c0.018,0.259,0.067,0.519,0.151,0.773l0.656,1.992H214.13z M222.739,207.065c-1.003,0.932-2.423,1.25-3.798,0.849
						c-1.124-0.326-2.326-0.007-3.136,0.833c-0.521,0.541-0.82,1.235-0.869,1.957c-0.048-0.722-0.348-1.417-0.868-1.957
						c-0.601-0.623-1.415-0.959-2.255-0.959c-0.294,0-0.591,0.041-0.882,0.126c-1.375,0.399-2.795,0.083-3.796-0.85
						c-0.796-0.741-1.245-1.746-1.264-2.829c-0.02-1.084,0.392-2.103,1.158-2.869l7.906-7.907l7.907,7.907v0
						c0.767,0.766,1.178,1.785,1.158,2.869C223.983,205.32,223.534,206.325,222.739,207.065z"/>
				</g>
			</g>
		</g>
		<g>
			<g>
				<g>
					<path d="M197.721,112.526l-11.633-11.633c-0.714-0.714-1.787-0.93-2.725-0.542c-0.934,0.387-1.543,1.298-1.543,2.31v36.559
						c0,1.292,0.983,2.37,2.27,2.489c0.537,0.05,1.072,0.074,1.606,0.074c4.305,0,8.452-1.6,11.575-4.507
						c3.452-3.215,5.399-7.578,5.482-12.285C202.838,120.282,201.051,115.855,197.721,112.526z M193.863,133.617
						c-1.955,1.821-4.398,2.894-7.043,3.123v-28.042l7.365,7.365c2.361,2.361,3.629,5.501,3.569,8.841
						C197.695,128.24,196.313,131.335,193.863,133.617z"/>
				</g>
			</g>
		</g>
		<g>
			<g>
				<g>
					<path d="M142.959,97.489c-8.099-7.542-21.095-7.327-29.301,0.362c-8.204-7.688-21.2-7.903-29.3-0.362
						c-4.266,3.973-6.672,9.364-6.775,15.18c-0.104,5.819,2.105,11.289,6.22,15.403l24.215,24.215
						c1.556,1.555,3.598,2.332,5.641,2.332s4.087-0.777,5.642-2.333l24.215-24.215c4.114-4.114,6.323-9.584,6.22-15.403
						C149.631,106.853,147.225,101.461,142.959,97.489z M139.979,124.537l-24.215,24.214c-1.161,1.161-3.049,1.162-4.212,0
						l-24.215-24.215c-3.146-3.146-4.835-7.33-4.756-11.779c0.079-4.447,1.92-8.57,5.185-11.61
						c3.022-2.815,6.945-4.209,10.904-4.209c4.318,0,8.681,1.659,11.961,4.939c1.668,1.67,4.386,1.668,6.054,0
						c6.289-6.289,16.546-6.616,22.865-0.73c3.265,3.04,5.105,7.163,5.185,11.61C144.814,117.208,143.125,121.391,139.979,124.537z"
						/>
				</g>
			</g>
		</g>
		<g>
			<g>
				<g>
					<path d="M79.571,30.416c-3.431-3.194-8.744-3.398-12.53-0.705c-3.787-2.693-9.101-2.487-12.529,0.705
						c-1.978,1.842-3.093,4.342-3.142,7.04c-0.048,2.699,0.977,5.236,2.885,7.144l9.499,9.5c0.879,0.878,2.046,1.361,3.287,1.361
						c1.242,0,2.41-0.484,3.287-1.362l9.499-9.499c1.908-1.908,2.934-4.445,2.886-7.144C82.665,34.758,81.549,32.258,79.571,30.416z
						 M76.292,41.064l-9.251,9.25l-9.251-9.25c-0.939-0.94-1.444-2.19-1.421-3.52c0.024-1.329,0.574-2.561,1.551-3.47
						c0.896-0.836,2.063-1.249,3.243-1.249c1.302,0,2.622,0.503,3.617,1.498c1.206,1.207,3.314,1.209,4.522,0
						c1.896-1.895,4.975-2.007,6.86-0.249c0.977,0.909,1.526,2.141,1.55,3.469C77.737,38.874,77.232,40.124,76.292,41.064z"/>
				</g>
			</g>
		</g>
		<g>
			<g>
				<g>
					<path d="M172.807,193.669c-3.432-3.194-8.744-3.398-12.53-0.705c-3.787-2.693-9.101-2.487-12.529,0.705
						c-1.978,1.842-3.093,4.342-3.142,7.04c-0.048,2.699,0.977,5.236,2.885,7.144l9.499,9.5c0.879,0.878,2.046,1.361,3.287,1.361
						c1.242,0,2.41-0.484,3.287-1.362l9.499-9.499c1.908-1.908,2.934-4.445,2.886-7.144
						C175.9,198.011,174.784,195.511,172.807,193.669z M169.527,204.317l-9.251,9.25l-9.251-9.25c-0.939-0.94-1.444-2.19-1.421-3.52
						c0.024-1.329,0.574-2.561,1.551-3.47c0.896-0.836,2.063-1.249,3.243-1.249c1.302,0,2.622,0.503,3.617,1.498
						c1.207,1.208,3.315,1.208,4.522,0c1.896-1.895,4.975-2.008,6.86-0.249c0.977,0.909,1.526,2.141,1.55,3.469
						C170.973,202.127,170.468,203.377,169.527,204.317z"/>
				</g>
			</g>
		</g>
		<g>
			<g>
				<path d="M145.063,213.713h-27.606c-1.381,0-2.5,1.119-2.5,2.5s1.119,2.5,2.5,2.5h27.606c1.381,0,2.5-1.119,2.5-2.5
					S146.444,213.713,145.063,213.713z"/>
			</g>
		</g>
		<g>
			<g>
				<path d="M53.868,51.997c-1.381,0-2.5,1.119-2.5,2.5v123.622c0,1.381,1.119,2.5,2.5,2.5s2.5-1.119,2.5-2.5V54.497
					C56.368,53.116,55.249,51.997,53.868,51.997z"/>
			</g>
		</g>
		<g>
			<g>
				<g>
					<path d="M54.916,176.769c-21.845,0-39.616,17.771-39.616,39.616C15.3,238.229,33.071,256,54.916,256
						c21.844,0,39.615-17.771,39.615-39.615C94.531,194.541,76.76,176.769,54.916,176.769z M54.916,251
						C35.828,251,20.3,235.472,20.3,216.385c0-19.087,15.528-34.616,34.616-34.616c19.087,0,34.615,15.528,34.615,34.616
						C89.531,235.472,74.003,251,54.916,251z"/>
				</g>
			</g>
		</g>
		<g>
			<g>
				<path d="M79.346,176.769c-4.336,0-8.616,0.706-12.722,2.098c-1.308,0.443-2.008,1.863-1.564,3.17
					c0.442,1.308,1.863,2.011,3.17,1.565c3.588-1.217,7.327-1.833,11.116-1.833c19.088,0,34.616,15.528,34.616,34.616
					c0,19.087-15.528,34.615-34.616,34.615c-3.821,0-7.591-0.627-11.203-1.863c-1.308-0.446-2.728,0.25-3.175,1.556
					c-0.447,1.307,0.249,2.728,1.556,3.175c4.135,1.415,8.449,2.132,12.822,2.132c21.845,0,39.616-17.771,39.616-39.615
					C118.962,194.541,101.19,176.769,79.346,176.769z"/>
			</g>
		</g>
	</g>
</g>
<g id="Layer_15">
</g>
<g id="Layer_16">
</g>
<g id="Layer_17">
</g>
<g id="Layer_18">
</g>
<g id="Layer_19">
</g>
<g id="Layer_20">
</g>
<g id="Layer_21">
</g>
<g id="Layer_22">
</g>
<g id="Layer_23">
</g>
<g id="Layer_24">
</g>
<g id="Layer_25">
</g>
<g id="Layer_26">
</g>
<g id="Layer_27">
</g>
<g id="Layer_28">
</g>
<g id="Layer_29">
</g>
<g id="Layer_30">
</g>
<g id="Layer_31">
</g>
<g id="Layer_32">
</g>
<g id="Layer_33">
</g>
<g id="Layer_34">
</g>
<g id="Layer_35">
</g>
<g id="Layer_36">
</g>
<g id="Layer_37">
</g>
<g id="Layer_38">
</g>
<g id="Layer_39">
</g>
<g id="Layer_40">
</g>
<g id="Layer_41">
</g>
<g id="Layer_42">
</g>
<g id="Layer_43">
</g>
<g id="Layer_44">
</g>
<g id="Layer_45">
</g>
<g id="Layer_46">
</g>
<g id="Layer_47">
</g>
<g id="Layer_48">
</g>
<g id="Layer_49">
</g>
<g id="Layer_50">
</g>
<g id="Layer_51">
</g>
<g id="Layer_52">
</g>
<g id="Layer_53">
</g>
<g id="Layer_54">
</g>
<g id="Layer_55">
</g>
<g id="Layer_56">
</g>
<g id="Layer_57">
</g>
<g id="Layer_58">
</g>
<g id="Layer_59">
</g>
<g id="Layer_60">
</g>
<g id="Layer_61">
</g>
<g id="Layer_62">
</g>
<g id="Layer_63">
</g>
<g id="Layer_64">
</g>
<g id="Layer_65">
</g>
<g id="Layer_66">
</g>
<g id="Layer_67">
</g>
<g id="Layer_68">
</g>
<g id="Layer_69">
</g>
<g id="Layer_70">
</g>
<g id="Layer_71">
</g>
<g id="Layer_72">
</g>
<g id="Layer_73">
</g>
<g id="Layer_74">
</g>
<g id="Layer_75">
</g>
<g id="Layer_76">
</g>
<g id="Layer_77">
</g>
<g id="Layer_78">
</g>
<g id="Layer_79">
</g>
<g id="Layer_80">
</g>
<g id="Layer_81">
</g>
<g id="Layer_82">
</g>
<g id="Layer_83">
</g>
<g id="Layer_84">
</g>
<g id="Layer_85">
</g>
</svg>
